<svg xmlns="http://www.w3.org/2000/svg" viewBox="0 0 1400 520" role="img" aria-labelledby="title desc"><defs><linearGradient id="bg" x1="0" y1="0" x2="1" y2="1"><stop stop-color="#071a31"/><stop offset=".7" stop-color="#0b4c96"/><stop offset="1" stop-color="#1682f4"/></linearGradient></defs><title id="title">Dashboard ElectroCAD-AI</title><desc id="desc">Painel visual limpo para novos usuários, sem dados fictícios.</desc><rect width="1400" height="520" rx="28" fill="url(#bg)"/><g fill="#fff" font-family="Arial,sans-serif"><text x="55" y="65" font-size="30" font-weight="800">Dashboard ElectroCAD-AI</text><text x="55" y="98" font-size="16" opacity=".72">Comece seu primeiro projeto e organize sua operação elétrica.</text></g><g font-family="Arial,sans-serif"><rect x="55" y="135" width="290" height="125" rx="20" fill="#fff"/><rect x="365" y="135" width="290" height="125" rx="20" fill="#fff"/><rect x="675" y="135" width="290" height="125" rx="20" fill="#fff"/><rect x="985" y="135" width="305" height="125" rx="20" fill="#fff"/><g fill="#64748b" font-size="15"><text x="80" y="170">Projetos</text><text x="390" y="170">Clientes</text><text x="700" y="170">Em andamento</text><text x="1010" y="170">Concluídos</text></g><g fill="#0f172a" font-size="42" font-weight="800"><text x="80" y="220">0</text><text x="390" y="220">0</text><text x="700" y="220">0</text><text x="1010" y="220">0</text></g><g fill="#94a3b8" font-size="12"><text x="80" y="244">Nenhum projeto</text><text x="390" y="244">Nenhum cliente</text><text x="700" y="244">Sem dados</text><text x="1010" y="244">Sem dados</text></g><rect x="55" y="290" width="760" height="175" rx="22" fill="#fff"/><rect x="845" y="290" width="445" height="175" rx="22" fill="#fff"/><g fill="#0f172a"><text x="80" y="332" font-size="21" font-weight="800">Projetos recentes</text><text x="80" y="365" font-size="14" fill="#94a3b8">Nenhum projeto cadastrado ainda.</text><text x="870" y="332" font-size="21" font-weight="800">Ações rápidas</text><text x="870" y="365" font-size="14" fill="#64748b">Crie um projeto ou cadastre seu primeiro cliente.</text></g><rect x="870" y="390" width="150" height="42" rx="11" fill="#0b74ed"/><text x="894" y="417" fill="#fff" font-size="14" font-weight="700">Novo projeto</text><rect x="1035" y="390" width="150" height="42" rx="11" fill="#eef6ff"/><text x="1054" y="417" fill="#0b74ed" font-size="14" font-weight="700">Novo cliente</text></g></svg>